# AST/ASF file generated using VICON BodyLanguage
# -----------------------------------------------
:version 1.10
:name VICON
:units
  mass 1.0
  length 0.45
  angle deg
:documentation
   .ast/.asf automatically generated from VICON data using
   VICON BodyBuilder and BodyLanguage model FoxedUp or BRILLIANT.MOD
:root
   order TX TY TZ RX RY RZ
   axis XYZ
   position 0 0 0  
   orientation 0 0 0 
:bonedata
  begin
     id 1 
     name lhipjoint
     direction 0.523584 -0.783993 0.333487 
     length 2.44404 
     axis 0 0 0  XYZ
  end
  begin
     id 2 
     name lfemur
     direction 0.34202 -0.939693 0  
     length 7.29523  
     axis 0 0 20  XYZ
    dof rx ry rz
    limits (-160.0 20.0)
           (-70.0 70.0)
           (-60.0 70.0)
  end
  begin
     id 3 
     name ltibia
     direction 0.34215 -0.939645 0   
     length 7.81194   
     axis 0 0 20   XYZ
    dof rx
    limits (-10.0 170.0)
  end
  begin
     id 4 
     name lfoot
     direction 0.0941847 -0.25877 0.961336   
     length 2.41437   
     axis -90 7.62852e-016 20   XYZ
    dof rx rz
    limits (-45.0 90.0)
           (-70.0 20.0)
  end
  begin
     id 5 
     name ltoes
     direction 1.53526e-011 -4.21768e-011 1   
     length 1.2048   
     axis -90 7.62852e-016 20   XYZ
    dof rx
    limits (-90.0 20.0)
  end
  begin
     id 6 
     name rhipjoint
     direction -0.46599 -0.814191 0.346332   
     length 2.35339  
     axis 0 0 0  XYZ 
  end
  begin
     id 7 
     name rfemur
     direction -0.34202 -0.939693 0   
     length 7.34966   
     axis 0 0 -20   XYZ
    dof rx ry rz
    limits (-160.0 20.0)
           (-70.0 70.0)
           (-70.0 60.0)
  end
  begin
     id 8 
     name rtibia
     direction -0.34202 -0.939693 0   
     length 7.89934   
     axis 0 0 -20   XYZ
    dof rx
    limits (-10.0 170.0)
 end
 begin
     id 9 
     name rfoot
     direction -0.0975468 -0.268008 0.958466   
     length 2.27725  
     axis -90 -7.62852e-016 -20   XYZ
    dof rx rz
    limits (-45.0 90.0)
           (-20.0 70.0)
  end
  begin
     id 10 
     name rtoes
     direction -1.53563e-011 -4.22022e-011 1   
     length 1.13683   
     axis -90 -7.62852e-016 -20   XYZ
    dof rx
    limits (-90.0 20.0)
  end
  begin
     id 11 
     name lowerback
     direction -0.00456414 0.999242 -0.0386661   
     length 2.16968   
     axis 0 0 0   XYZ
    dof rx ry rz
    limits (-20.0 45.0)
           (-30.0 30.0)
           (-30.0 30.0)
  end
  begin
     id 12 
     name upperback
     direction 0.0297078 0.998988 0.0337799   
     length 2.15674   
     axis 0 0 0   XYZ
    dof rx ry rz
    limits (-20.0 45.0)
           (-30.0 30.0)
           (-30.0 30.0)
  end
  begin
     id 13 
     name thorax
     direction 0.0309305 0.998202 0.0513506   
     length 2.16319   
     axis 0 0 0   XYZ
    dof rx ry rz
    limits (-20.0 45.0)
           (-30.0 30.0)
           (-30.0 30.0)
  end
  begin
     id 14 
     name lowerneck
     direction -0.103039 0.983474 0.148872   
     length 1.64318   
     axis 0 0 0   XYZ
    dof rx ry rz
    limits (-20.0 45.0)
           (-30.0 30.0)
           (-30.0 30.0)
  end
  begin
     id 15 
     name upperneck
     direction 0.128124 0.971079 -0.201469   
     length 1.68242   
     axis 0 0 0   XYZ
    dof rx ry rz
    limits (-20.0 45.0)
           (-30.0 30.0)
           (-30.0 30.0)
  end
  begin
     id 16
     name head
     direction 0.0496365 0.994919 -0.0875941  
     length 1.70108  
     axis 0 0 0   XYZ
    dof rx ry rz
    limits (-20.0 45.0)
           (-30.0 30.0)
           (-30.0 30.0)
  end
  begin
     id 17 
     name lclavicle
     direction 0.887148 0.430222 -0.166967  
     length 3.25763  
     axis 0 0 0   XYZ
    dof ry rz
    limits (-20.0 10.0)
           (0.0 20.0)
  end
  begin
     id 18 
     name lhumerus
     direction 1 -4.48962e-011 1.92156e-027   
     length 5.10755   
     axis 180 -30 -90   XYZ
    dof rx ry rz
    limits (-60.0 90.0)
           (-90.0 90.0)
           (-90.0 90.0)
  end
  begin
     id 19
     name lradius
     direction 1 -4.48958e-011 7.10963e-027   
     length 3.36253   
     axis 180 -30 -90   XYZ
    dof rx
    limits (-10.0 170.0)
  end
  begin
     id 20
     name lwrist
     direction 1 -4.48946e-011 1.82396e-026   
     length 1.68127   
     axis -1.15222e-014 90 90   XYZ
    dof ry
    limits (-180.0 0.0)
 end
  begin
     id 21 
     name lhand
     direction 1 -4.48919e-011 3.64759e-026   
     length 0.619088   
     axis -2.32787e-014 90 90   XYZ
    dof rx rz
    limits (-90.0 90.0)
           (-45.0 45.0)
  end
  begin
     id 22 
     name lfingers
     direction 1 -4.49012e-011 7.29744e-026   
     length 0.499125   
     axis -4.6558e-014 90 90   XYZ
    dof rx
    limits (0.0 90.0)
  end
  begin
     id 23
     name lthumb
     direction 0.707107 -6.35028e-011 0.707107   
     length 0.716646   
     axis -90 45 3.78391e-014   XYZ
    dof rx rz
    limits (-45.0 45.0)
           (-45.0 45.0)
  end
  begin
     id 24 
     name rclavicle
     direction -0.82886 0.533198 -0.169384   
     length 3.20647  
     axis 0 0 0   XYZ 
    dof ry rz
    limits (-10.0 20.0)
           (-20.0 0.0)
  end
  begin
     id 25 
     name rhumerus
     direction -1 -4.48973e-011 3.06863e-027  
     length 5.27387   
     axis 180 30 90   XYZ
    dof rx ry rz
    limits (-90.0 60.0)
           (-90.0 90.0)
           (-90.0 90.0)
  end
  begin
     id 26 
     name rradius
     direction -1 -4.48988e-011 9.4797e-027   
     length 3.40144   
     axis 180 30 90   XYZ
    dof rx
    limits (-10.0 170.0)
  end
  begin
     id 27 
     name rwrist
     direction -1 -4.48897e-011 1.82366e-026   
     length 1.70072   
     axis -1.15222e-014 -90 -90   XYZ
    dof ry
    limits (-180.0 0.0)
  end
  begin
     id 28
     name rhand
     direction -1 -4.48965e-011 3.64815e-026   
     length 0.742821   
     axis -2.32787e-014 -90 -90   XYZ
    dof rx rz
    limits (-90.0 90.0)
           (-45.0 45.0)
  end
  begin
     id 29
     name rfingers
     direction -1 -4.49016e-011 7.29754e-026   
     length 0.598881   
     axis -4.6558e-014 -90 -90   XYZ
    dof rx
    limits (0.0 90.0)
  end
  begin
     id 30
     name rthumb
     direction -0.707107 -6.3488e-011 0.707107   
     length 0.859877   
     axis -90 -45 -3.78391e-014   XYZ
    dof rx rz
    limits (-45.0 45.0)
           (-45.0 45.0)
  end
:hierarchy
  begin
    root lhipjoint rhipjoint lowerback
    lhipjoint lfemur
    lfemur ltibia
    ltibia lfoot
    lfoot ltoes
    rhipjoint rfemur
    rfemur rtibia
    rtibia rfoot
    rfoot rtoes
    lowerback upperback
    upperback thorax
    thorax lowerneck lclavicle rclavicle
    lowerneck upperneck
    upperneck head
    lclavicle lhumerus
    lhumerus lradius
    lradius lwrist
    lwrist lhand lthumb
    lhand lfingers
    rclavicle rhumerus
    rhumerus rradius
    rradius rwrist
    rwrist rhand rthumb
    rhand rfingers
  end

#!OML:ASF F:\Work\Patient Classification 1\justin\Session 1\justin.ASF
:FULLY-SPECIFIED
:DEGREES
1689
root 0.889588 18.4518 -4.42877 4.11218 -0.67353 -3.32167
lowerback 9.56538 0.104117 -1.45449
upperback -0.118532 0.255589 4.97976
thorax -5.53601 0.239654 6.0435
lowerneck -17.2915 -4.65996 -13.3722
upperneck 17.4109 -5.69275 13.2415
head 9.08998 -2.22287 6.08337
rclavicle 5.86415e-015 -3.26007e-014
rhumerus 11.2758 41.2774 -58.8074
rradius 96.8084
rwrist 20.2135
rhand -4.14868 0.872446
rfingers 7.12502
rthumb 21.6112 -27.9416
lclavicle 5.86415e-015 -3.26007e-014
lhumerus 49.7375 -15.123 62.4577
lradius 46.1528
lwrist -13.2315
lhand -4.19691 30.8042
lfingers 7.12502
lthumb 21.5649 59.6236
rfemur -7.45678 0.2259 23.1135
rtibia 18.8017
rfoot -11.7614 -3.34169
rtoes -16.0931
lfemur -6.29463 3.50039 -16.0803
ltibia 17.8868
lfoot -10.8316 0.138307
ltoes -13.6262
1690
root 0.891406 18.4523 -4.43223 4.10992 -0.339962 -3.2861
lowerback 9.67275 0.270754 -1.22452
upperback -0.259798 0.500567 4.79498
thorax -5.76968 0.358458 5.68092
lowerneck -16.5624 -4.86274 -13.4365
upperneck 16.9888 -6.06314 13.4753
head 8.87976 -2.40246 6.1159
rclavicle -7.45443e-015 1.66979e-014
rhumerus 10.5517 40.8524 -59.2281
rradius 95.4551
rwrist 19.1603
rhand -2.06727 0.273797
rfingers 7.12502
rthumb 23.6089 -28.2968
lclavicle -7.45443e-015 1.66979e-014
lhumerus 50.3642 -15.4194 62.3748
lradius 47.9915
lwrist -12.8643
lhand -3.84947 31.1253
lfingers 7.12502
lthumb 21.8985 59.906
rfemur -7.44609 0.109501 23.0878
rtibia 18.8126
rfoot -11.7973 -3.52845
rtoes -14.5028
lfemur -6.32921 3.46522 -16.1031
ltibia 17.878
lfoot -10.7898 -0.147182
ltoes -13.5147
1691
root 0.896756 18.4529 -4.42714 4.0912 -0.10967 -3.27795
lowerback 9.52228 0.44893 -0.77876
upperback -0.247444 0.768026 4.47624
thorax -5.6881 0.470411 5.04198
lowerneck -16.0243 -5.07267 -13.444
upperneck 16.6224 -6.46967 13.8619
head 8.73507 -2.57644 6.19237
rclavicle -4.67144e-015 2.22639e-014
rhumerus 9.67776 40.2752 -59.8542
rradius 94.1417
rwrist 18.5509
rhand -3.03663 0.991851
rfingers 7.12502
rthumb 22.6788 -27.6955
lclavicle -4.67144e-015 2.22639e-014
lhumerus 50.7521 -15.6563 62.2742
lradius 49.8371
lwrist -13.3161
lhand -3.3327 30.8957
lfingers 7.12502
lthumb 22.3946 59.6176
rfemur -7.36636 -0.107341 23.0529
rtibia 18.7673
rfoot -11.7698 -3.52322
rtoes -13.6127
lfemur -6.29401 3.48156 -16.1289
ltibia 17.87
lfoot -10.8246 -0.343238
ltoes -13.174
1692
root 0.902026 18.4531 -4.41846 4.01402 0.273491 -3.35121
lowerback 8.96524 0.498058 -0.130509
upperback 0.169558 0.85951 4.14581
thorax -4.9272 0.478331 4.29885
lowerneck -16.085 -5.30601 -13.4512
upperneck 16.1631 -6.83418 14.3053
head 8.66739 -2.70611 6.28995
rclavicle -9.93923e-017 -1.90833e-014
rhumerus 9.94724 39.3385 -59.8966
rradius 92.468
rwrist 18.5364
rhand -6.18648 3.92039
rfingers 7.12502
rthumb 19.6531 -25.1062
lclavicle -9.93923e-017 -1.90833e-014
lhumerus 51.7232 -15.5982 61.6902
lradius 51.6357
lwrist -13.3455
lhand -3.44089 31.0377
lfingers 7.12502
lthumb 22.2908 59.7721
rfemur -7.18705 -0.515869 23.1091
rtibia 18.6951
rfoot -11.748 -3.48825
rtoes -14.3777
lfemur -6.23436 3.41513 -16.0632
ltibia 17.8496
lfoot -10.8486 -0.577168
ltoes -13.1308
1693
root 0.901315 18.4528 -4.41273 3.92246 0.730115 -3.30903
lowerback 9.16276 0.623375 -0.321378
upperback 0.116497 1.02212 4.31066
thorax -5.11372 0.568719 4.5618
lowerneck -16.0743 -5.58818 -13.89
upperneck 16.2067 -7.12385 14.3035
head 8.74234 -2.87006 6.32587
rclavicle -6.95746e-016 -3.10104e-014
rhumerus 10.1527 39.4026 -59.1044
rradius 91.3211
rwrist 17.892
rhand -3.55605 0.271859
rfingers 7.12502
rthumb 22.1802 -28.4757
lclavicle -6.95746e-016 -3.10104e-014
lhumerus 52.0429 -15.62 62.0637
lradius 53.4512
lwrist -13.0922
lhand -3.75981 31.3647
lfingers 7.12502
lthumb 21.9846 60.1354
rfemur -7.00468 -0.814836 23.0809
rtibia 18.6048
rfoot -11.7315 -3.67049
rtoes -15.362
lfemur -6.21191 3.29249 -16.089
ltibia 17.8533
lfoot -10.8271 -0.845033
ltoes -13.0296
1694
root 0.894475 18.453 -4.40844 3.90469 1.15802 -3.18961
lowerback 9.44213 0.766493 -0.637599
upperback -0.0571964 1.19767 4.42421
thorax -5.47831 0.672747 4.841
lowerneck -16.0899 -5.88974 -14.1589
upperneck 16.357 -7.46752 14.1883
head 8.85639 -3.05772 6.28553
rclavicle -6.16232e-015 -1.27222e-014
rhumerus 10.3255 39.32 -58.4709
rradius 89.7478
rwrist 17.554
rhand -2.98971 -0.519265
rfingers 7.12502
rthumb 22.7238 -29.2011
lclavicle -6.16232e-015 -1.27222e-014
lhumerus 52.2172 -15.7445 62.4107
lradius 55.3683
lwrist -13.0132
lhand -3.75249 31.5583
lfingers 7.12502
lthumb 21.9916 60.3281
rfemur -6.91176 -0.866623 23.0069
rtibia 18.5205
rfoot -11.7064 -4.05743
rtoes -15.026
lfemur -6.30022 3.21081 -16.1768
ltibia 17.8859
lfoot -10.737 -1.10664
ltoes -12.7797
1695
root 0.88701 18.4555 -4.40994 3.91705 1.57143 -3.19774
lowerback 9.51271 0.918958 -0.591976
upperback -0.0493387 1.40535 4.38442
thorax -5.52634 0.774169 4.74244
lowerneck -16.0908 -6.13677 -14.3074
upperneck 16.1365 -7.79562 14.387
head 8.85084 -3.20289 6.32953
rclavicle -1.36167e-014 -3.18055e-014
rhumerus 10.7373 38.7793 -57.8994
rradius 88.0736
rwrist 17.2728
rhand -3.25087 -0.289598
rfingers 7.12502
rthumb 22.4732 -29.002
lclavicle -1.36167e-014 -3.18055e-014
lhumerus 52.712 -15.9937 62.3576
lradius 57.3862
lwrist -13.1198
lhand -3.8074 31.601
lfingers 7.12502
lthumb 21.9389 60.3769
rfemur -6.88611 -0.845368 23.0797
rtibia 18.4802
rfoot -11.7349 -4.46931
rtoes -14.2844
lfemur -6.45271 3.1795 -16.1311
ltibia 17.9156
lfoot -10.6593 -1.34141
ltoes -13.164
1696
root 0.882545 18.4582 -4.41483 3.91312 2.00976 -3.20904
lowerback 9.5032 1.07962 -0.518466
upperback -0.000640148 1.62397 4.34303
thorax -5.48555 0.878532 4.62437
lowerneck -15.9295 -6.32859 -14.4918
upperneck 15.8715 -8.06503 14.6406
head 8.79669 -3.32445 6.40831
rclavicle 2.9122e-014 2.3059e-014
rhumerus 11.0956 38.1676 -57.3199
rradius 86.5664
rwrist 17.0083
rhand -3.34772 -0.439805
rfingers 7.12502
rthumb 22.3802 -29.1634
lclavicle 2.9122e-014 2.3059e-014
lhumerus 53.2335 -16.3542 62.1648
lradius 59.5033
lwrist -13.2082
lhand -4.06855 31.8715
lfingers 7.12502
lthumb 21.6881 60.6766
rfemur -6.8686 -0.964527 23.1375
rtibia 18.4745
rfoot -11.8184 -4.76563
rtoes -14.7
lfemur -6.57067 3.085 -16.0964
ltibia 17.9516
lfoot -10.6618 -1.52744
ltoes -13.6092
1697
root 0.878759 18.4563 -4.41382 3.89655 2.5656 -3.16155
lowerback 9.40261 1.1524 -0.513487
upperback 0.0366108 1.71724 4.31481
thorax -5.39648 0.922789 4.57855
lowerneck -15.8087 -6.55078 -14.6003
upperneck 15.746 -8.35789 14.6673
head 8.78704 -3.47112 6.39118
rclavicle -1.16289e-014 2.70347e-014
rhumerus 11.524 37.654 -56.7832
rradius 85.0172
rwrist 16.7525
rhand -3.46666 -0.597667
rfingers 7.12502
rthumb 22.266 -29.335
lclavicle -1.16289e-014 2.70347e-014
lhumerus 53.598 -16.6184 61.9634
lradius 61.6479
lwrist -13.0339
lhand -3.95993 32.4938
lfingers 7.12502
lthumb 21.7924 61.2868
rfemur -6.80336 -1.31345 23.1209
rtibia 18.4603
rfoot -11.8823 -4.95285
rtoes -15.3761
lfemur -6.65794 2.85158 -16.1214
ltibia 18.036
lfoot -10.7179 -1.72996
ltoes -13.4262
1698
root 0.87053 18.4512 -4.40932 3.85049 3.11253 -3.23722
lowerback 9.47021 1.21489 -0.409022
upperback -0.038479 1.81698 4.31973
thorax -5.51911 0.97174 4.50948
lowerneck -15.583 -6.78858 -14.8499
upperneck 15.6378 -8.67941 14.8109
head 8.78201 -3.63359 6.43832
rclavicle -2.48481e-015 -1.51076e-014
rhumerus 11.865 37.1633 -56.3641
rradius 83.3878
rwrist 16.311
rhand -3.60535 -0.680387
rfingers 7.12502
rthumb 22.1329 -29.4335
lclavicle -2.48481e-015 -1.51076e-014
lhumerus 53.666 -16.8757 62.0733
lradius 63.7551
lwrist -12.6733
lhand -3.57361 32.8939
lfingers 7.12502
lthumb 22.1634 61.6434
rfemur -6.70528 -1.52834 23.2595
rtibia 18.4512
rfoot -11.9047 -5.2813
rtoes -14.9705
lfemur -6.74466 2.68963 -15.9938
ltibia 18.1577
lfoot -10.7922 -1.99533
ltoes -13.0479
1699
root 0.860916 18.4499 -4.409 3.8502 3.57604 -3.35765
lowerback 9.50348 1.30434 -0.25557
upperback 0.0584776 1.95219 4.34761
thorax -5.44291 1.03292 4.43139
lowerneck -15.9795 -7.12888 -15.2729
upperneck 15.6256 -9.06002 15.1147
head 8.95209 -3.79393 6.55864
rclavicle -9.93923e-017 2.94201e-014
rhumerus 12.7024 36.4849 -55.6169
rradius 81.7303
rwrist 15.9124
rhand -3.83742 -0.645516
rfingers 7.12502
rthumb 21.9101 -29.4249
lclavicle -9.93923e-017 2.94201e-014
lhumerus 53.9595 -17.0458 62.0425
lradius 64.9591
lwrist -15.7567
lhand -6.11985 32.3876
lfingers 7.12502
lthumb 19.7171 61.4077
rfemur -6.71719 -1.46823 23.4667
rtibia 18.4814
rfoot -11.9474 -5.79431
rtoes -14.2031
lfemur -6.91197 2.62419 -15.8241
ltibia 18.2867
lfoot -10.8406 -2.23102
ltoes -12.9415
1700
root 0.858841 18.4519 -4.41303 3.89016 4.06076 -3.29021
lowerback 9.41062 1.34622 -0.206827
upperback 0.399384 1.99747 4.33465
thorax -5.03357 1.04613 4.38405
lowerneck -16.9451 -7.48267 -15.7001
upperneck 15.561 -9.37035 15.4406
head 9.20147 -3.89486 6.68815
rclavicle 4.96962e-016 1.19271e-014
rhumerus 14.5006 35.7036 -54.2876
rradius 79.9191
rwrist 15.4916
rhand -4.12923 -0.682345
rfingers 7.12502
rthumb 21.6299 -29.4942
lclavicle 4.96962e-016 1.19271e-014
lhumerus 54.5888 -16.7434 62.1439
lradius 66.8737
lwrist -16.3416
lhand -6.10633 31.8461
lfingers 7.12502
lthumb 19.7301 60.8647
rfemur -6.76701 -1.5147 23.4322
rtibia 18.5196
rfoot -11.9433 -6.16707
rtoes -14.7905
lfemur -7.13049 2.42752 -15.9006
ltibia 18.4588
lfoot -10.9275 -2.34558
ltoes -13.0981
1701
root 0.861 18.4507 -4.41648 3.83541 4.48222 -3.18448
lowerback 9.58949 1.42351 -0.132354
upperback 0.522351 2.10419 4.26554
thorax -5.00789 1.09457 4.25094
lowerneck -17.3394 -7.70509 -16.1704
upperneck 15.5159 -9.5832 15.8497
head 9.34599 -3.96819 6.88006
rclavicle -2.38542e-015 2.62396e-014
rhumerus 15.8149 34.9669 -53.2763
rradius 78.0719
rwrist 15.0432
rhand -4.27127 -0.400509
rfingers 7.12502
rthumb 21.4934 -29.228
lclavicle -2.38542e-015 2.62396e-014
lhumerus 54.7901 -16.7331 62.4772
lradius 69.2678
lwrist -15.2987
lhand -4.5674 31.7571
lfingers 7.12502
lthumb 21.209 60.6169
rfemur -6.67775 -1.66662 23.3083
rtibia 18.5378
rfoot -11.9215 -6.32296
rtoes -15.6142
lfemur -7.23234 2.27547 -16.0463
ltibia 18.6623
lfoot -10.9918 -2.4245
ltoes -12.6708
1702
root 0.858965 18.4478 -4.41697 3.74668 4.77905 -3.30476
lowerback 9.754 1.59725 0.102274
upperback 0.502904 2.36624 4.26361
thorax -5.13128 1.2197 4.0751
lowerneck -17.3198 -7.94273 -16.5839
upperneck 15.5583 -9.86917 16.0934
head 9.44706 -4.10449 6.99671
rclavicle -2.16675e-014 -3.65764e-014
rhumerus 16.2814 34.1549 -52.6717
rradius 76.3965
rwrist 14.8996
rhand -4.54916 0.256329
rfingers 7.12502
rthumb 21.2265 -28.6014
lclavicle -2.16675e-014 -3.65764e-014
lhumerus 54.6854 -17.0617 62.9511
lradius 71.4766
lwrist -14.7201
lhand -3.93298 31.8542
lfingers 7.12502
lthumb 21.8183 60.6443
rfemur -6.58883 -1.73977 23.4412
rtibia 18.5597
rfoot -11.9505 -6.43543
rtoes -14.6962
lfemur -7.26623 2.30373 -15.9355
ltibia 18.7963
lfoot -10.9753 -2.47309
ltoes -12.0613
1703
root 0.856288 18.4479 -4.41407 3.7127 5.09 -3.43227
lowerback 9.60703 1.81269 0.333617
upperback 0.569016 2.67077 4.23633
thorax -4.98943 1.36315 3.87444
lowerneck -17.0969 -8.27198 -16.7755
upperneck 15.3542 -10.3128 16.1789
head 9.4352 -4.3248 6.98343
rclavicle -8.74653e-015 -1.90833e-014
rhumerus 16.75 33.2076 -52.0107
rradius 74.8176
rwrist 14.8203
rhand -5.106 0.411811
rfingers 7.12502
rthumb 20.6916 -28.5052
lclavicle -8.74653e-015 -1.90833e-014
lhumerus 54.7109 -17.5231 63.3751
lradius 73.4731
lwrist -14.9122
lhand -3.69847 31.567
lfingers 7.12502
lthumb 22.0435 60.3307
rfemur -6.55202 -1.86073 23.5905
rtibia 18.5733
rfoot -12.0043 -6.53318
rtoes -13.4664
lfemur -7.31834 2.32216 -15.8223
ltibia 18.8272
lfoot -11.0027 -2.42495
ltoes -12.5061
